<svg width="148" height="48" viewBox="0 0 148 48" fill="none" xmlns="http://www.w3.org/2000/svg">
<g clip-path="url(#clip0_1031_3159)">
<path fill-rule="evenodd" clip-rule="evenodd" d="M17.22 43.2C27.8239 43.2 36.42 34.6039 36.42 24C36.42 13.3961 27.8239 4.8 17.22 4.8C15.8389 4.8 14.4803 4.94574 13.161 5.22938L17.112 9.1804C19.9677 9.15956 22.7827 9.96476 25.2092 11.5178C28.1372 13.3919 30.3132 16.2356 31.3566 19.5517C32.4001 22.8678 32.2446 26.4452 30.9174 29.6582C29.6741 32.668 27.4767 35.1786 24.6724 36.81L23.7478 35.8854C26.4527 34.3998 28.5726 32.0343 29.7528 29.1771C30.9672 26.2373 31.1095 22.964 30.1547 19.9299C29.2 16.8958 27.209 14.2938 24.53 12.5791C22.1667 11.0665 19.4008 10.3292 16.6159 10.4535L16.5772 10.4148L16.5708 10.4211L8.41948 2.26978L8.44586 2.2434L8.02979 1.82291C10.9081 0.628914 14.019 0 17.22 0C30.4748 0 41.22 10.7452 41.22 24C41.22 37.2548 30.4748 48 17.22 48C11.124 48 5.19931 45.5973 0.769882 41.4981L0 40.7856V9.49289H9.32876L14.1644 14.2929H4.8V21.6H21.48L26.28 26.4H4.8V33.78H15.2934L20.1 38.58H4.8V38.6509C8.25951 41.5298 12.6969 43.2 17.22 43.2ZM133.281 24.9671C134.48 25.4732 135.826 25.7263 137.317 25.7263C138.809 25.7263 140.155 25.4732 141.353 24.9671C142.552 24.4609 143.578 23.7638 144.43 22.8758C145.283 21.9878 145.94 20.9577 146.402 19.7856C146.863 18.6134 147.094 17.3614 147.094 16.0293C147.094 14.6973 146.863 13.4497 146.402 12.2864C145.94 11.1231 145.283 10.0975 144.43 9.2095C143.578 8.3215 142.552 7.62887 141.353 7.13158C140.155 6.6343 138.809 6.38566 137.317 6.38566C135.826 6.38566 134.48 6.6343 133.281 7.13158C132.083 7.62887 131.057 8.3215 130.205 9.2095C129.352 10.0975 128.695 11.1231 128.233 12.2864C127.771 13.4497 127.541 14.6973 127.541 16.0293C127.541 17.3614 127.771 18.6134 128.233 19.7856C128.695 20.9577 129.352 21.9878 130.205 22.8758C131.057 23.7638 132.083 24.4609 133.281 24.9671ZM66.4032 22.0234V25.38H76.926V22.0234H73.5694V10.0887H76.926V6.73201H66.4032V10.0887H69.7598V22.0234H66.4032ZM79.7894 22.0234V25.38H88.261C89.2555 25.38 90.1657 25.1491 90.9916 24.6874C91.8174 24.2256 92.4745 23.5507 92.9629 22.6627C93.4513 21.7747 93.6955 20.7003 93.6955 19.4393C93.6955 18.3737 93.4602 17.4413 92.9896 16.6421C92.5189 15.8429 91.8574 15.2213 91.0049 14.7773C90.1524 14.3333 89.149 14.1113 87.9946 14.1113H84.7711C84.4159 14.1113 84.0874 14.0225 83.7854 13.8449C83.4835 13.6673 83.2482 13.4275 83.0795 13.1256C82.9108 12.8237 82.8264 12.4863 82.8264 12.1133C82.8264 11.7403 82.9108 11.4029 83.0795 11.101C83.2482 10.7991 83.4835 10.5549 83.7854 10.3684C84.0874 10.1819 84.4159 10.0887 84.7711 10.0887H92.4967V6.73201H84.3982C83.4036 6.73201 82.4978 6.96289 81.6809 7.42465C80.8639 7.88641 80.2157 8.53021 79.7362 9.35605C79.2566 10.1819 79.0169 11.1542 79.0169 12.2731C79.0169 13.4098 79.27 14.3821 79.7761 15.1902C80.2823 15.9983 80.9616 16.6154 81.8141 17.0417C82.6666 17.4679 83.6167 17.6811 84.6646 17.6811H87.7814C88.1722 17.6811 88.5274 17.7787 88.847 17.9741C89.1667 18.1695 89.4242 18.4314 89.6196 18.76C89.815 19.0885 89.9126 19.4571 89.9126 19.8655C89.9126 20.2563 89.815 20.6159 89.6196 20.9445C89.4242 21.273 89.1667 21.535 88.847 21.7303C88.5274 21.9257 88.1722 22.0234 87.7814 22.0234H79.7894ZM105.403 25.38C104.302 25.38 103.334 25.1269 102.5 24.6208C101.665 24.1146 101.017 23.4397 100.555 22.5961C100.093 21.7525 99.8623 20.8246 99.8623 19.8123V10.0887H94.6675V6.73201H108.867V10.0887H103.672V20.2651C103.672 20.7447 103.841 21.1576 104.178 21.5039C104.515 21.8502 104.924 22.0234 105.403 22.0234H106.735V25.38H105.403ZM110.771 6.73201V25.38H114.581V19.5725H118.71L120.814 23.3554C121.17 23.9592 121.653 24.4476 122.266 24.8206C122.879 25.1935 123.558 25.38 124.304 25.38H126.702V22.0234H124.89C124.748 22.0234 124.624 21.9923 124.517 21.9301C124.411 21.868 124.322 21.7836 124.251 21.6771L122.546 18.6934C123.505 18.1428 124.278 17.3925 124.864 16.4423C125.45 15.4921 125.743 14.3955 125.743 13.1523C125.743 11.8735 125.445 10.7547 124.85 9.79561C124.255 8.83657 123.456 8.08621 122.453 7.54453C121.449 7.00285 120.335 6.73201 119.109 6.73201H110.771ZM114.581 16.2158H118.656C119.26 16.2158 119.811 16.0959 120.308 15.8562C120.805 15.6164 121.201 15.2657 121.494 14.8039C121.787 14.3421 121.933 13.7916 121.933 13.1522C121.933 12.5129 121.782 11.9623 121.48 11.5005C121.178 11.0388 120.783 10.688 120.295 10.4483C119.806 10.2085 119.26 10.0886 118.656 10.0886H114.581V16.2158ZM137.317 22.343C138.17 22.343 138.96 22.1876 139.688 21.8768C140.417 21.566 141.051 21.122 141.593 20.5448C142.135 19.9676 142.552 19.2972 142.845 18.5335C143.138 17.7698 143.285 16.9351 143.285 16.0294C143.285 15.1236 143.138 14.2889 142.845 13.5252C142.552 12.7615 142.135 12.0955 141.593 11.5272C141.051 10.9589 140.417 10.5193 139.688 10.2085C138.96 9.89772 138.17 9.74232 137.317 9.74232C136.465 9.74232 135.675 9.89772 134.946 10.2085C134.218 10.5193 133.583 10.9589 133.042 11.5272C132.5 12.0955 132.083 12.7615 131.79 13.5252C131.497 14.2889 131.35 15.1236 131.35 16.0294C131.35 16.9351 131.497 17.7698 131.79 18.5335C132.083 19.2972 132.5 19.9676 133.042 20.5448C133.583 21.122 134.218 21.566 134.946 21.8768C135.675 22.1876 136.465 22.343 137.317 22.343ZM59.1655 19.9209C57.82 21.4086 55.8003 21.6 54.3523 21.6H52.32V10.5297L48.5148 6.72V25.38H54.8018C56.791 25.38 58.5137 24.9804 59.97 24.1812C61.4263 23.382 62.5585 22.2809 63.3666 20.8778C64.1747 19.4748 64.5787 17.8675 64.5787 16.056C64.5787 14.2445 64.1747 12.6372 63.3666 11.2342C62.5585 9.83111 61.4263 8.73 59.97 7.9308C58.5137 7.1316 56.791 6.72 54.8018 6.72H51.5262L55.3746 10.5496C56.6539 10.6533 58.1151 11.0183 59.1655 12.1911C60.511 13.6934 60.7692 14.8167 60.7692 16.056C60.7692 17.2953 60.511 18.4332 59.1655 19.9209ZM50.904 40.638C51.684 41.01 52.578 41.196 53.586 41.196H55.944V39.774H53.55C52.962 39.774 52.422 39.678 51.93 39.486C51.45 39.282 51.054 38.988 50.742 38.604C50.43 38.208 50.244 37.728 50.184 37.164H57.024C57.048 37.056 57.06 36.93 57.06 36.786C57.072 36.642 57.078 36.504 57.078 36.372C57.078 35.52 56.922 34.752 56.61 34.068C56.298 33.372 55.824 32.82 55.188 32.412C54.564 32.004 53.778 31.8 52.83 31.8C51.954 31.8 51.186 32.01 50.526 32.43C49.866 32.85 49.35 33.426 48.978 34.158C48.606 34.878 48.42 35.694 48.42 36.606C48.42 37.53 48.636 38.34 49.068 39.036C49.512 39.72 50.124 40.254 50.904 40.638ZM55.404 35.994H50.166C50.19 35.658 50.262 35.322 50.382 34.986C50.502 34.65 50.676 34.35 50.904 34.086C51.132 33.81 51.402 33.594 51.714 33.438C52.038 33.27 52.41 33.186 52.83 33.186C53.226 33.186 53.568 33.246 53.856 33.366C54.156 33.486 54.402 33.648 54.594 33.852C54.798 34.044 54.96 34.266 55.08 34.518C55.2 34.758 55.284 35.01 55.332 35.274C55.38 35.526 55.404 35.766 55.404 35.994ZM60.5696 41.196V35.886C60.5696 35.07 60.7496 34.356 61.1096 33.744C61.4816 33.132 61.9916 32.658 62.6396 32.322C63.2876 31.974 64.0256 31.8 64.8536 31.8C65.6936 31.8 66.4316 31.974 67.0676 32.322C67.7156 32.658 68.2196 33.132 68.5796 33.744C68.9516 34.356 69.1376 35.07 69.1376 35.886V41.196H67.4816V35.904C67.4816 35.352 67.3556 34.878 67.1036 34.482C66.8636 34.074 66.5396 33.762 66.1316 33.546C65.7356 33.33 65.3096 33.222 64.8536 33.222C64.3976 33.222 63.9656 33.33 63.5576 33.546C63.1616 33.762 62.8376 34.074 62.5856 34.482C62.3456 34.878 62.2256 35.352 62.2256 35.904V41.196H60.5696ZM75.1269 40.638C75.9069 41.01 76.8009 41.196 77.8089 41.196H80.1669V39.774H77.7729C77.1849 39.774 76.6449 39.678 76.1529 39.486C75.6729 39.282 75.2769 38.988 74.9649 38.604C74.6529 38.208 74.4669 37.728 74.4069 37.164H81.2469C81.2709 37.056 81.2829 36.93 81.2829 36.786C81.2949 36.642 81.3009 36.504 81.3009 36.372C81.3009 35.52 81.1449 34.752 80.8329 34.068C80.5209 33.372 80.0469 32.82 79.4109 32.412C78.7869 32.004 78.0009 31.8 77.0529 31.8C76.1769 31.8 75.4089 32.01 74.7489 32.43C74.0889 32.85 73.5729 33.426 73.2009 34.158C72.8289 34.878 72.6429 35.694 72.6429 36.606C72.6429 37.53 72.8589 38.34 73.2909 39.036C73.7349 39.72 74.3469 40.254 75.1269 40.638ZM79.6269 35.994H74.3889C74.4129 35.658 74.4849 35.322 74.6049 34.986C74.7249 34.65 74.8989 34.35 75.1269 34.086C75.3549 33.81 75.6249 33.594 75.9369 33.438C76.2609 33.27 76.6329 33.186 77.0529 33.186C77.4489 33.186 77.7909 33.246 78.0789 33.366C78.3789 33.486 78.6249 33.648 78.8169 33.852C79.0209 34.044 79.1829 34.266 79.3029 34.518C79.4229 34.758 79.5069 35.01 79.5549 35.274C79.6029 35.526 79.6269 35.766 79.6269 35.994ZM93.5351 43.428V44.85H98.3411C99.1931 44.85 99.8651 44.598 100.357 44.094C100.849 43.602 101.095 42.936 101.095 42.096V36.66C101.095 35.688 100.897 34.842 100.501 34.122C100.117 33.39 99.5711 32.82 98.8631 32.412C98.1551 32.004 97.3211 31.8 96.3611 31.8C95.3651 31.8 94.5131 32.01 93.8051 32.43C93.1091 32.85 92.5751 33.42 92.2031 34.14C91.8311 34.86 91.6451 35.67 91.6451 36.57C91.6451 37.494 91.8311 38.316 92.2031 39.036C92.5751 39.744 93.0911 40.302 93.7511 40.71C94.4111 41.106 95.1731 41.304 96.0371 41.304C96.5651 41.304 97.0391 41.226 97.4591 41.07C97.8791 40.902 98.2511 40.68 98.5751 40.404C98.8991 40.128 99.1751 39.816 99.4031 39.468H99.4391V41.988C99.4391 42.42 99.3131 42.768 99.0611 43.032C98.8211 43.296 98.4791 43.428 98.0351 43.428H93.5351ZM97.9451 39.45C97.4891 39.738 96.9551 39.882 96.3431 39.882C95.7191 39.882 95.1791 39.738 94.7231 39.45C94.2791 39.15 93.9311 38.754 93.6791 38.262C93.4391 37.758 93.3191 37.206 93.3191 36.606C93.3191 35.97 93.4391 35.4 93.6791 34.896C93.9311 34.38 94.2791 33.978 94.7231 33.69C95.1791 33.39 95.7191 33.24 96.3431 33.24C96.9791 33.24 97.5251 33.39 97.9811 33.69C98.4371 33.978 98.7911 34.374 99.0431 34.878C99.2951 35.382 99.4211 35.952 99.4211 36.588C99.4211 37.212 99.2891 37.776 99.0251 38.28C98.7731 38.772 98.4131 39.162 97.9451 39.45ZM108.517 41.34V44.85H110.173V41.34C110.845 41.232 111.439 41.004 111.955 40.656C112.483 40.296 112.891 39.834 113.179 39.27C113.479 38.706 113.629 38.058 113.629 37.326V32.016H111.973V37.308C111.973 37.86 111.847 38.34 111.595 38.748C111.355 39.144 111.031 39.45 110.623 39.666C110.227 39.882 109.795 39.99 109.327 39.99C108.871 39.99 108.439 39.882 108.031 39.666C107.635 39.45 107.317 39.144 107.077 38.748C106.837 38.34 106.717 37.86 106.717 37.308V32.016H105.043V37.326C105.043 38.058 105.193 38.712 105.493 39.288C105.793 39.852 106.201 40.314 106.717 40.674C107.245 41.022 107.845 41.244 108.517 41.34ZM84.7385 41.196V34.626C84.7385 33.81 84.9665 33.174 85.4225 32.718C85.8905 32.25 86.5325 32.016 87.3485 32.016H89.2385V33.438H87.6545C87.2585 33.438 86.9465 33.552 86.7185 33.78C86.5025 34.008 86.3945 34.326 86.3945 34.734V41.196H84.7385Z" fill="url(#paint0_linear_1031_3159)"/>
</g>
<defs>
<linearGradient id="paint0_linear_1031_3159" x1="106.065" y1="-44.5503" x2="68.9901" y2="64.6837" gradientUnits="userSpaceOnUse">
<stop stop-color="#FAD961"/>
<stop offset="1" stop-color="#F76B1C"/>
</linearGradient>
<clipPath id="clip0_1031_3159">
<rect width="147.094" height="48" fill="white"/>
</clipPath>
</defs>
</svg>
